<svg xmlns="http://www.w3.org/2000/svg" viewBox="0 0 105 19" focusable="false" class="chakra-icon css-jfapc"><g fill="none" fill-rule="evenodd"><path fill="#343A40" d="M28.56 11.23c0 1.79-1.02 2.7-2.53 2.7-1.52 0-2.54-.91-2.54-2.7V4.78c0-.49-.3-.78-.74-.78-.45 0-.75.3-.75.78v6.45c0 2.7 1.6 4.03 4.02 4.03 2.44 0 4.03-1.34 4.03-4.03V4.78c0-.49-.3-.78-.74-.78-.45 0-.75.3-.75.78v6.45zm6.3 4.03c2.12 0 3.25-1 3.25-2.52 0-1.26-.73-2.02-2.4-2.2l-.84-.08c-1.2-.12-1.57-.44-1.57-1.05 0-.64.51-1.07 1.52-1.07.63 0 1.24.16 1.77.4.22.1.37.13.5.13.34 0 .6-.26.6-.58 0-.24-.13-.42-.41-.57a5.04 5.04 0 00-2.4-.56c-1.87 0-2.96.89-2.96 2.36 0 1.25.82 2.02 2.4 2.18l.83.08c1.27.13 1.58.46 1.58 1.1 0 .69-.6 1.17-1.76 1.17-.9 0-1.59-.3-2.24-.68a.9.9 0 00-.47-.14c-.39 0-.65.29-.65.61 0 .23.11.42.33.57.67.45 1.7.85 2.91.85zm11.32-1.13c.07.12.12.26.12.39 0 .37-.3.65-.72.65-.25 0-.45-.12-.62-.34l-.32-.49h-.01c-.54.58-1.3.92-2.46.92-1.8 0-2.83-.85-2.83-2.33 0-1.6 1.14-2.4 3.13-2.4h1.82c.07 0 .1-.02.1-.09v-.37c0-1.09-.52-1.7-1.92-1.7-.62 0-1.26.2-1.64.39-.14.06-.29.11-.4.11-.37 0-.6-.22-.6-.58 0-.21.1-.42.33-.55a4.6 4.6 0 012.44-.58c2.14 0 3.15.98 3.15 2.9v2.78c0 .4.03.56.15.79l.28.5zm-3.81-.03c1.24 0 2.02-.57 2.02-1.52v-.86c0-.06-.03-.1-.1-.1h-1.6c-1.38 0-2 .4-2 1.27 0 .8.6 1.2 1.68 1.2zm6.17 1.07c-.4 0-.7-.28-.7-.73V4.73c0-.45.3-.73.7-.73.4 0 .7.28.7.73v3.46h.02c.37-.6 1.07-1.03 2.28-1.03 1.35 0 2.34.72 2.76 1.94.2.61.28 1.23.28 2.1 0 .9-.08 1.5-.28 2.12a2.77 2.77 0 01-2.76 1.94c-1.19 0-1.9-.42-2.28-1.03h-.01v.2c0 .46-.3.74-.7.74zM51.2 14c.9 0 1.5-.43 1.76-1.21.15-.42.18-.9.18-1.59 0-.66-.03-1.15-.18-1.57-.27-.77-.87-1.21-1.76-1.21-.9 0-1.5.44-1.77 1.21-.15.42-.18.9-.18 1.57 0 .68.03 1.17.18 1.59.27.78.87 1.21 1.77 1.21zm5.75-8.22c.5 0 .92-.4.92-.89a.9.9 0 00-.92-.89.9.9 0 00-.92.89c0 .49.41.89.92.89zm-.7 8.66c0 .45.3.73.7.73.4 0 .7-.28.7-.73V7.98c0-.45-.3-.73-.7-.73-.4 0-.7.28-.7.73v6.46zm5.62.73c.47 0 .72-.26.72-.63 0-.38-.25-.63-.66-.63-.55 0-.77-.25-.77-.9V4.74c0-.45-.3-.73-.7-.73-.4 0-.7.28-.7.73v8.37c0 1.39.52 2.07 1.96 2.07h.15zm2.7-9.39c.5 0 .91-.4.91-.89a.9.9 0 00-.92-.89.9.9 0 00-.92.89c0 .49.42.89.92.89zm-.7 8.66c0 .45.3.73.7.73.4 0 .7-.28.7-.73V7.98c0-.45-.3-.73-.7-.73-.4 0-.7.28-.7.73v6.46zm6.12.73c.5 0 .75-.26.75-.63 0-.38-.25-.63-.69-.63-.85 0-1.07-.25-1.07-1.07v-4.3c0-.07.04-.1.1-.1h1.06c.38 0 .6-.23.6-.56 0-.32-.22-.55-.6-.55h-1.06c-.06 0-.1-.03-.1-.1v-1.7c0-.45-.3-.72-.7-.72-.4 0-.7.27-.7.73v1.7c0 .06-.04.1-.1.1h-.45c-.39 0-.6.22-.6.54 0 .33.21.55.6.55h.45c.06 0 .1.04.1.1v4.36c0 1.61.6 2.28 2.24 2.28h.17zM72.6 18c1.15 0 1.8-.4 2.5-2.15l3-7.64c.04-.1.07-.21.07-.33 0-.35-.27-.63-.68-.63-.32 0-.54.17-.66.49l-2 5.36h-.04L72.7 7.74c-.12-.32-.33-.49-.67-.49-.4 0-.7.28-.7.63 0 .12.03.23.07.33l2.72 6.65-.26.71c-.36.92-.74 1.17-1.4 1.17-.43 0-.68.27-.68.63 0 .35.25.63.69.63h.13zm6.95-3.6c0 .48.3.77.75.77.43 0 .74-.3.74-.78v-4.1c0-.06.03-.1.1-.1h4.93c.07 0 .1.04.1.1v4.1c0 .49.3.78.75.78.44 0 .74-.3.74-.78V4.78c0-.49-.3-.78-.74-.78-.45 0-.75.3-.75.78v3.98c0 .06-.03.1-.1.1h-4.93c-.07 0-.1-.04-.1-.1V4.78c0-.49-.3-.78-.74-.78-.45 0-.75.3-.75.78v9.61zM96.1 7.97c0-.45-.3-.73-.7-.73-.4 0-.7.28-.7.73v4.13c0 1.15-.72 1.9-1.8 1.9-1.21 0-1.78-.74-1.78-1.98V7.98c0-.45-.3-.73-.7-.73-.4 0-.7.28-.7.73v4.37c0 1.77 1.01 2.91 2.75 2.91 1.09 0 1.83-.45 2.21-1.05h.02v.23c0 .45.3.73.7.73.4 0 .7-.28.7-.73V7.98zm2.85 7.19c-.4 0-.7-.28-.7-.73v-9.7c0-.45.3-.73.7-.73.4 0 .7.28.7.73v3.46h.02c.37-.6 1.07-1.03 2.27-1.03 1.36 0 2.35.72 2.77 1.94.2.61.28 1.23.28 2.1 0 .9-.08 1.5-.28 2.12a2.77 2.77 0 01-2.77 1.94c-1.18 0-1.89-.42-2.27-1.03h-.02v.2c0 .46-.3.74-.7.74zm2.66-1.17c.89 0 1.49-.43 1.76-1.21.15-.42.18-.9.18-1.59 0-.66-.03-1.15-.18-1.57-.27-.77-.87-1.21-1.76-1.21-.9 0-1.5.44-1.77 1.21-.15.42-.19.9-.19 1.57 0 .68.04 1.17.19 1.59.26.78.87 1.21 1.77 1.21z"/><path fill="#DD6461" d="M10.49.69c.9-.18 2.15.28 2.76 1l3.66 4.32c.62.73.88 2.05.58 2.96l-1.72 5.3c-.3.92-1.27 1.8-2.18 1.96l-5.4 1.02a3.23 3.23 0 01-2.76-1l-3.66-4.32a3.44 3.44 0 01-.58-2.96l1.72-5.3c.3-.92 1.27-1.8 2.18-1.96L10.5.69z"/><path fill="#613433" d="M5.66 9.6a.88.88 0 10-.34-1.73.88.88 0 00.34 1.73zm7.33-1.43a.88.88 0 10-.34-1.73.88.88 0 00.34 1.73zm-4.05 5.47c.71.15 1.92-.09 2.52-.5a3.31 3.31 0 001.38-2.05c.15-.72-.57-1.2-1.28-1.07l-3.88.76c-.72.14-1.2.86-.8 1.46a3.31 3.31 0 002.06 1.4z"/><path fill="#AB4F4F" d="M8.64 13.32c.23.08.62.15.86.14.44 0 .96-.1 1.37-.26a2.85 2.85 0 001.3-1.1.46.46 0 00-.16-.63 3.38 3.38 0 00-1.8-.3 5 5 0 00-.86.16c-.64.2-1.18.54-1.55.95-.16.18-.12.5.08.65.23.16.48.3.76.4z"/></g></svg>